# xmcd
#
# Track frame offsets:
#	150
#	26235
#	46737
#	64477
#	97367
#	122767
#	142952
#	169047
#	190955
#	202310
#	220500
#	244282
#
# Disc length: 3457 seconds
#
# Revision: 4
# Processed by: cddbd v1.5.1PL0 Copyright (c) Steve Scherf et al.
# Submitted via: EasyCDDAExtractor 8.2.3.1
#
DISCID=bc0d7f0c
DTITLE=Zucchero Sugar Fornaciari - Zucchero
DYEAR=1900
DGENRE=Blues
TTITLE0=Diamante
TTITLE1=Wonderful world
TTITLE2=Il mare
TTITLE3=Mama
TTITLE4=Dunes of mercy
TTITLE5=Senza una donna
TTITLE6=You're losing me
TTITLE7=Solo una sana
TTITLE8=You've chosen me
TTITLE9=Diavolo in me
TTITLE10=Overdose (d'amore)
TTITLE11=Nice (Nietzsche) che dice
EXTD=
EXTT0=
EXTT1=featuring Eric Clapton
EXTT2=
EXTT3=
EXTT4=
EXTT5=Without a woman, featuring Paul Young
EXTT6=
EXTT7=
EXTT8=
EXTT9=
EXTT10=
EXTT11=
PLAYORDER=
